<?xml version="1.0" standalone="no"?>
<!DOCTYPE svg PUBLIC "-//W3C//DTD SVG 20010904//EN"
 "http://www.w3.org/TR/2001/REC-SVG-20010904/DTD/svg10.dtd">
<svg version="1.0" xmlns="http://www.w3.org/2000/svg"
 width="344.000000pt" height="364.000000pt" viewBox="0 0 344.000000 364.000000"
 preserveAspectRatio="xMidYMid meet">

<g transform="translate(0.000000,364.000000) scale(0.100000,-0.100000)"
fill="#000000" stroke="none">
<path d="M0 1820 l0 -1820 1720 0 1720 0 0 1820 0 1820 -1720 0 -1720 0 0
-1820z m1420 920 c0 -5 -5 -10 -11 -10 -5 0 -7 5 -4 10 3 6 8 10 11 10 2 0 4
-4 4 -10z m-20 -57 c8 -16 24 -39 37 -53 l22 -25 -50 0 c-28 0 -48 4 -45 10
20 55 18 61 -21 56 -6 -1 -15 4 -19 10 -5 8 1 10 20 7 18 -4 26 -1 26 8 0 23
16 16 30 -13z m-222 -38 c17 -9 34 -20 37 -25 8 -12 -25 -22 -81 -24 -54 -2
-58 3 -48 52 4 18 9 21 32 17 16 -2 42 -12 60 -20z m602 -29 c0 -8 -9 -18 -21
-21 -19 -6 -20 -7 -2 -20 25 -19 11 -28 -21 -14 -33 15 -33 22 0 48 31 25 44
26 44 7z m34 -25 c-6 -6 -24 19 -24 34 1 6 7 1 15 -9 8 -11 12 -22 9 -25z
m-294 -7 c0 -17 -5 -17 -32 -3 -16 8 -18 13 -8 19 17 11 40 1 40 -16z m-76
-211 c4 -5 22 -8 39 -8 21 0 32 -5 32 -14 0 -11 -17 -14 -75 -14 -75 -1 -150
17 -150 34 0 11 143 12 154 2z m594 -43 c12 -12 22 -25 22 -30 0 -19 -19 -10
-40 20 -24 34 -14 40 18 10z m-107 -217 c-10 -17 -10 -17 -11 2 0 11 4 31 8
45 l7 25 3 -27 c2 -15 -1 -35 -7 -45z m229 -233 c16 -14 19 -20 8 -20 -8 0
-23 9 -33 20 -10 11 -14 20 -8 20 5 0 20 -9 33 -20z m197 -76 c-3 -3 -12 -4
-19 -1 -8 3 -5 6 6 6 11 1 17 -2 13 -5z m98 -19 l50 -14 -50 6 c-27 3 -59 9
-70 14 l-20 8 20 0 c11 0 43 -6 70 -14z m75 -25 c0 -5 -4 -10 -10 -10 -5 0
-10 5 -10 10 0 6 5 10 10 10 6 0 10 -4 10 -10z m35 -10 c3 -6 -1 -7 -9 -4 -18
7 -21 14 -7 14 6 0 13 -4 16 -10z m70 -30 c3 -6 -1 -7 -9 -4 -18 7 -21 14 -7
14 6 0 13 -4 16 -10z m153 -102 c39 -38 96 -164 60 -131 -23 21 -38 46 -43 75
-4 21 -69 90 -77 82 -3 -2 -5 3 -5 10 0 20 22 7 65 -36z m116 -208 l7 -25 -15
25 c-17 28 -21 50 -7 35 5 -6 12 -21 15 -35z m236 -694 c0 -6 -3 -6 -8 0 -9 9
-33 107 -31 127 0 12 38 -111 39 -127z m17 -88 c-3 -8 -6 -5 -6 6 -1 11 2 17
5 13 3 -3 4 -12 1 -19z"/>
</g>
</svg>
